<?xml version="1.0" standalone="no"?>
<!DOCTYPE svg PUBLIC "-//W3C//DTD SVG 1.1//EN" "http://www.w3.org/Graphics/SVG/1.1/DTD/svg11.dtd" >
<svg xmlns="http://www.w3.org/2000/svg" xmlns:xlink="http://www.w3.org/1999/xlink" version="1.1">
<metadata>
Created by FontForge 20150102 at Wed Jan 21 12:23:06 2015
 By uniteet7
Copyright (c) 2009-2010 Design Science, Inc.
</metadata>
<defs>
<font id="MathJax_Size4-Regular" horiz-adv-x="889" >
  <font-face 
    font-family="MathJax_Size4"
    font-weight="400"
    font-stretch="normal"
    units-per-em="1000"
    panose-1="0 0 0 0 0 0 0 0 0 0"
    ascent="800"
    descent="-200"
    bbox="-1903 -1250 1902 1750"
    underline-thickness="50"
    underline-position="-100"
    unicode-range="U+0020-EFFF"
  />
<missing-glyph horiz-adv-x="250" 
d="M50 0v533h150v-533h-150zM100 50h50v433h-50v-433z" />
    <glyph glyph-name=".notdef" horiz-adv-x="250" 
d="M50 0v533h150v-533h-150zM100 50h50v433h-50v-433z" />
    <glyph glyph-name=".null" horiz-adv-x="0" 
 />
    <glyph glyph-name="nonmarkingreturn" horiz-adv-x="333" 
 />
    <glyph glyph-name="space" unicode=" " horiz-adv-x="250" 
 />
    <glyph glyph-name="parenleft" unicode="(" horiz-adv-x="792" 
d="M758 -1240q0 -3 -6 -9h-16q-18 0 -19 1q-6 3 -45 49q-435 493 -435 1450q0 955 435 1449q25 30 44 49q2 1 19 1h17q6 -6 6 -9t-14 -22q-184 -230 -281 -543q-115 -374 -115 -925q0 -552 115 -926q97 -313 281 -543q14 -19 14 -22z" />
    <glyph glyph-name="parenright" unicode=")" horiz-adv-x="792" 
d="M33 1741q0 9 19 9h8q13 0 14 -1q6 -3 45 -49q435 -493 435 -1449t-435 -1450q-39 -46 -45 -49h-6q-7 -1 -12 -1h-6q-17 0 -17 10q0 3 17 24q168 209 261 488q132 392 132 978q0 585 -132 977q-93 279 -261 488q-17 21 -17 25z" />
    <glyph glyph-name="slash" unicode="/" horiz-adv-x="1278" 
d="M1166 1738q10 12 23 12t22.5 -8.5t9.5 -20.5q0 -1 -0.5 -3t-0.5 -3q-1 -7 -554 -1477.5t-555 -1474.5q-9 -12 -25 -12q-12 0 -21 9t-9 20q0 1 0.5 3t0.5 3q1 7 554 1477.5t555 1474.5z" />
    <glyph glyph-name="bracketleft" unicode="[" horiz-adv-x="583" 
d="M269 -1249v2999h308v-73h-235v-2853h235v-73h-308z" />
    <glyph glyph-name="backslash" unicode="\" horiz-adv-x="1278" 
d="M56 1720q0 12 8.5 21t20.5 9q19 0 26 -12q2 -4 555 -1474.5t554 -1477.5q0 -1 0.5 -3t0.5 -3q0 -11 -9 -20t-21 -9q-16 0 -25 12q-2 4 -555 1474.5t-554 1477.5q0 1 -1 3v2z" />
    <glyph glyph-name="bracketright" unicode="]" horiz-adv-x="583" 
d="M5 1677v73h308v-2999h-308v73h235v2853h-235z" />
    <glyph glyph-name="braceleft" unicode="{" horiz-adv-x="806" 
d="M661 -1243l-6 -6h-33l-18 9q-124 61 -194 165q-49 74 -62 166q-2 12 -2 410l-1 401l-2 16q-3 30 -11 58q-19 77 -64.5 141t-110.5 106q-2 2 -5 4t-3.5 3t-2 2.5t-2 4t-0.5 5.5v8v6.5v5t1 4t1 2.5t1.5 2t2.5 2l3 3t4 3q65 42 110.5 106t64.5 141q8 28 11 58l2 17l1 401
q0 397 2 409q7 49 23 90q42 110 149 189q33 25 80 50l22 11h33l6 -6v-17v-12q0 -9 -10 -13q-49 -27 -90.5 -72t-65.5 -97q-30 -63 -36 -135q-1 -9 -1 -397q0 -387 -1 -396q-11 -128 -101 -235q-75 -80 -154 -119l48 -29q10 -6 51 -37q24 -20 55 -54q90 -107 101 -235
q1 -9 1 -397q0 -387 1 -396q10 -120 84 -211q26 -33 59 -59q23 -20 49 -34q10 -4 10 -13v-12v-17z" />
    <glyph glyph-name="braceright" unicode="}" horiz-adv-x="806" 
d="M144 1727q0 16 1.5 19.5t10.5 3.5h11h16l20 -10q44 -22 82 -51q129 -96 162 -233q6 -20 9 -46q2 -12 2 -409q1 -340 1.5 -377t5.5 -66q14 -87 63 -161.5t121 -119.5q2 -2 5.5 -4.5t4 -2.5t1.5 -3.5t1 -6v-10.5v-10.5t-1 -5.5t-1.5 -3t-3.5 -2.5t-6 -4.5
q-72 -45 -121 -119.5t-63 -161.5q-5 -29 -5.5 -66t-1.5 -376q0 -398 -2 -410q-3 -26 -9 -46q-25 -107 -114 -192q-55 -54 -130 -92l-20 -10h-15q-18 0 -21 3t-3 20q0 13 1.5 16.5t7.5 7.5q51 29 90 73q91 99 102 232q1 9 1 396q0 388 1 397q9 123 96 228q21 26 60 60
q53 43 100 66q-49 24 -100 67q-39 34 -60 60q-87 105 -96 228q-1 9 -1 397q0 387 -1 396q-7 99 -60 178.5t-132 126.5q-7 4 -8 7t-1 17z" />
    <glyph glyph-name="uni00A0" unicode="&#xa0;" horiz-adv-x="250" 
 />
    <glyph glyph-name="circumflex" unicode="&#x2c6;" horiz-adv-x="1889" 
d="M-13 625q2 3 474.5 111.5t481.5 108.5q2 0 474 -107t479 -110q6 0 6 -10q0 -2 -4 -24q-6 -33 -15 -33q-2 0 -471 93l-467 96l-469 -96q-470 -93 -471 -93q-9 0 -16 31q-3 20 -3 26q0 5 1 7z" />
    <glyph glyph-name="tilde" unicode="&#x2dc;" horiz-adv-x="1889" 
d="M607 821q36 2 59 2q72 0 118 -9q74 -12 180 -55q128 -51 209 -60q38 -4 79 -4q38 0 86 4q185 19 464 104q65 20 69 20q1 -1 3.5 -4.5t3.5 -4.5q7 -32 7 -61q0 -5 -1 -6q0 -9 -35 -28q-16 -9 -107.5 -36t-161.5 -44q-219 -56 -368 -56q-60 0 -110 9q-74 12 -178 55
q-75 29 -118 41.5t-93 18.5q-36 4 -78 4q-40 0 -84 -4q-185 -19 -467 -104q-64 -20 -68 -20q-2 1 -4 4.5t-3 4.5q-11 58 -7 67q0 10 36 28q16 9 108.5 36t162.5 44q155 42 298 54z" />
    <glyph glyph-name="uni0302" unicode="&#x302;" horiz-adv-x="0" 
d="M-1902 625q2 3 474.5 111.5t481.5 108.5q2 0 474 -107t479 -110q6 0 6 -10q0 -2 -4 -24q-5 -33 -15 -33q-2 0 -471 93l-467 96l-469 -96q-470 -93 -471 -93q-9 0 -16 31q-3 20 -3 26q0 5 1 7z" />
    <glyph glyph-name="tildecomb" unicode="&#x303;" horiz-adv-x="0" 
d="M-1282 821q36 2 59 2q71 0 118 -9q74 -12 180 -55q128 -51 209 -60q38 -4 79 -4q38 0 86 4q185 19 464 104q65 20 69 20q1 -1 3.5 -4.5t3.5 -4.5q7 -32 7 -61q0 -5 -1 -6q0 -9 -35 -28q-16 -9 -107.5 -36t-161.5 -44q-219 -56 -368 -56q-61 0 -110 9q-74 12 -178 55
q-75 29 -118 41.5t-93 18.5q-36 4 -78 4q-40 0 -84 -4q-185 -19 -467 -104q-64 -20 -68 -20q-2 1 -4 4.5t-3 4.5q-11 58 -7 67q0 10 36 28q16 9 108.5 36t162.5 44q155 42 298 54z" />
    <glyph glyph-name="radical" unicode="&#x221a;" horiz-adv-x="1000" 
d="M983 1739q5 11 18 11q7 0 12.5 -5t6.5 -12q0 -7 -278.5 -1489t-281.5 -1485q-3 -9 -24 -9q-12 0 -12 2l-14 82q-15 83 -43 246.5t-55 318.5l-111 645l-64 -127l-26 26l76 153l77 151q1 -1 105 -604q101 -601 104 -606l254 1347q252 1345 256 1355z" />
    <glyph glyph-name="uni2308" unicode="&#x2308;" horiz-adv-x="639" 
d="M269 -1249v2999h364v-73h-291v-2926h-73z" />
    <glyph glyph-name="uni2309" unicode="&#x2309;" horiz-adv-x="639" 
d="M5 1677v73h364v-2999h-73v2926h-291z" />
    <glyph glyph-name="uni230A" unicode="&#x230a;" horiz-adv-x="639" 
d="M269 -1249v2999h73v-2926h291v-73h-364z" />
    <glyph glyph-name="uni230B" unicode="&#x230b;" horiz-adv-x="639" 
d="M296 -1176v2926h73v-2999h-364v73h291z" />
    <glyph glyph-name="uni239B" unicode="&#x239b;" horiz-adv-x="875" 
d="M837 1154q6 -6 6 -9q0 -4 -10 -18q-203 -289 -300.5 -665t-112.5 -882q-3 -156 -3 -189q0 -32 -1 -38t-5 -7q-2 -1 -45 -1q-67 0 -69 1q-5 2 -5.5 11t-0.5 60q3 239 24 454q80 792 470 1265q7 9 15 17q1 1 19 1h18z" />
    <glyph glyph-name="uni239C" unicode="&#x239c;" horiz-adv-x="875" 
d="M413 -9q-1 0 -10 -0.5t-22.5 -0.5h-26.5q-54 0 -57 1t-4 4q-2 12 -2 132v173q0 302 1 305l4 4q2 1 70 1h21.5t17 -0.5t7.5 -0.5q4 0 4.5 -17t0.5 -119v-346q0 -136 -4 -136z" />
    <glyph glyph-name="uni239D" unicode="&#x239d;" horiz-adv-x="875" 
d="M843 -635q0 -3 -6 -9h-17q-19 0 -20 1q-8 8 -15 17q-364 442 -458 1162q-32 245 -36 557q0 51 0.5 60t4.5 11q2 1 70 1q43 0 45 -1q4 -1 5 -7t1 -38q0 -244 17 -454q31 -408 129 -723t270 -559q10 -14 10 -18z" />
    <glyph glyph-name="uni239E" unicode="&#x239e;" horiz-adv-x="875" 
d="M31 1143q0 11 17 11h11q14 0 15 -1q8 -8 15 -17q364 -442 458 -1161q32 -247 36 -558q0 -51 -0.5 -60t-5.5 -11q-2 -1 -69 -1q-43 0 -45 1q-4 1 -5 7t-1 38q0 243 -17 455q-28 372 -111.5 664t-228.5 527q-31 52 -63 95q-3 5 -6 11z" />
    <glyph glyph-name="uni239F" unicode="&#x239f;" horiz-adv-x="875" 
d="M579 -9q-1 0 -10 -0.5t-22.5 -0.5h-26.5q-54 0 -57 1t-4 4q-2 12 -2 132v173q0 302 1 305l4 4q2 1 70 1h21.5t17 -0.5t7.5 -0.5q4 0 4.5 -17t0.5 -119v-346q0 -136 -4 -136z" />
    <glyph glyph-name="uni23A0" unicode="&#x23a0;" horiz-adv-x="875" 
d="M56 -644q-25 0 -25 9q0 3 6 13q32 43 63 95q145 235 228.5 527.5t111.5 664.5q17 209 17 454q0 42 5 45q2 1 58 1q55 0 57 -1q5 -2 5.5 -11t0.5 -60q-3 -239 -24 -454q-80 -792 -470 -1265q-7 -9 -15 -17q-1 -1 -18 -1z" />
    <glyph glyph-name="uni23A1" unicode="&#x23a1;" horiz-adv-x="667" 
d="M319 -645v1799h347v-84h-263v-1715h-84z" />
    <glyph glyph-name="uni23A2" unicode="&#x23a2;" horiz-adv-x="667" 
d="M319 0v602h84v-602h-84z" />
    <glyph glyph-name="uni23A3" unicode="&#x23a3;" horiz-adv-x="667" 
d="M319 -644v1799h84v-1715h263v-84h-347z" />
    <glyph glyph-name="uni23A4" unicode="&#x23a4;" horiz-adv-x="667" 
d="M0 1070v84h347v-1799h-84v1715h-263z" />
    <glyph glyph-name="uni23A5" unicode="&#x23a5;" horiz-adv-x="667" 
d="M263 0v602h84v-602h-84z" />
    <glyph glyph-name="uni23A6" unicode="&#x23a6;" horiz-adv-x="667" 
d="M263 -560v1715h84v-1799h-347v84h263z" />
    <glyph glyph-name="uni23A7" unicode="&#x23a7;" 
d="M712 899l6 -6v-17q0 -19 -1 -20q-6 -6 -13 -10q-77 -53 -127.5 -136.5t-66.5 -184.5q0 -1 -1 -4q-4 -28 -5 -172v-15v-94q0 -242 -1 -244q-1 -4 -9 -5t-50 -1q-52 0 -54 1q-3 1 -4 4q-2 13 -2 235q0 237 1 246q12 187 161 331q50 47 118 85l13 7h35z" />
    <glyph glyph-name="uni23A8" unicode="&#x23a8;" 
d="M389 1159q2 1 66 1q41 0 43 -1q3 -1 4 -4q2 -12 2 -231q0 -233 -1 -242q-11 -157 -107 -284q-63 -83 -153 -139l-14 -9l14 -9q130 -80 199 -211q54 -100 61 -212q1 -9 1 -242q0 -176 -0.5 -205.5t-4.5 -29.5h-1q-2 -1 -54 -1t-54 1q-3 1 -4 4q-2 12 -2 230q0 234 -1 246
q-16 263 -200 400q-12 9 -12 11q-1 1 -1 18t1 18q0 2 12 11q89 67 141 170t59 230q1 12 1 246q0 227 1 230z" />
    <glyph glyph-name="uni23A9" unicode="&#x23a9;" 
d="M718 -893l-6 -6h-35l-11 6q-156 84 -232 238q-43 86 -49 179q-1 10 -1 194q0 285 1 287l4 4q3 1 55 1q42 0 50 -1t9 -5q1 -2 1 -243q1 -245 2 -257q8 -65 24 -113q49 -151 174 -237q7 -4 13 -10q1 -1 1 -20v-17z" />
    <glyph glyph-name="uni23AA" unicode="&#x23aa;" 
d="M389 309q2 1 66 1q41 0 43 -1q4 -1 5 -11q1 -15 1 -148q0 -118 -0.5 -138t-4.5 -21h-1q-2 -1 -54 -1t-54 1q-4 1 -5 11q-1 15 -1 148q0 153 1 155z" />
    <glyph glyph-name="uni23AB" unicode="&#x23ab;" 
d="M175 898q2 1 19 1h17l11 -6q134 -73 213 -201q61 -112 68 -216q1 -9 1 -246q0 -179 -0.5 -209t-4.5 -30h-1q-2 -1 -54 -1q-42 0 -50 1t-9 5q-1 2 -1 244q-1 244 -2 256q-8 65 -24 113q-49 151 -174 237q-7 4 -13 10q-1 1 -1 19q0 19 5 23z" />
    <glyph glyph-name="uni23AC" unicode="&#x23ac;" 
d="M389 1159q2 1 66 1q41 0 43 -1q3 -1 4 -4q2 -12 2 -230q0 -234 1 -246q16 -263 200 -400q12 -9 12 -11q1 -1 1 -18t-1 -18q0 -2 -12 -11q-89 -67 -141 -170t-59 -230q-1 -12 -1 -246q0 -175 -0.5 -204.5t-4.5 -29.5h-1q-2 -1 -54 -1t-54 1q-3 1 -4 4q-2 12 -2 231
q0 233 1 242q11 157 107 284q63 83 153 139l14 9l-14 9q-130 80 -199 211q-54 100 -61 212q-1 10 -1 191q0 280 1 282z" />
    <glyph glyph-name="uni23AD" unicode="&#x23ad;" 
d="M389 9q2 1 66 1q41 0 43 -1q3 -1 4 -4q2 -13 2 -235q0 -237 -1 -246q-7 -111 -68 -215q-78 -129 -213 -202l-11 -6h-16q-19 0 -22 3t-3 22q0 17 1 18q6 6 13 10q78 53 128.5 137t65.5 184q0 1 1 3q4 29 5 171v17v95q0 241 1 243t4 5z" />
    <glyph glyph-name="uni23B7" unicode="&#x23b7;" horiz-adv-x="1056" 
d="M742 -871l-4 -4l-4 -4t-4 -2.5t-6.5 -2.5t-9.5 -1h-12l-480 1454l-42 -85q-42 -85 -43 -85q-6 5 -13 13l-13 13l154 311l437 -1322v754l1 754q10 13 19 13q12 0 20 -15v-1791z" />
    <glyph glyph-name="uni27E8" unicode="&#x27e8;" horiz-adv-x="806" 
d="M140 242v18l246 734q247 735 249 738q8 13 22 17q1 0 5 0.5t6 0.5q14 -1 24 -10.5t10 -25.5v-9l-488 -1454l489 -1455l-1 -9q0 -16 -9.5 -25.5t-25.5 -9.5q-20 0 -32 17q-2 3 -249 738z" />
    <glyph glyph-name="uni27E9" unicode="&#x27e9;" horiz-adv-x="806" 
d="M138 -1248q-16 0 -25.5 9.5t-9.5 25.5v9l488 1455l-488 1454v9q0 16 9.5 26t24.5 10q20 0 33 -18q2 -3 249 -738l246 -734v-18l-246 -735q-247 -735 -249 -738q-12 -17 -32 -17z" />
    <glyph glyph-name="uniE000" unicode="&#xe000;" horiz-adv-x="1056" 
d="M722 -14q-13 0 -20 14v306l1 306q10 13 19 13q12 0 20 -15v-610q-7 -14 -20 -14z" />
    <glyph glyph-name="uniE001" unicode="&#xe001;" horiz-adv-x="1056" 
d="M722 -14q-13 0 -20 14v589q5 11 11 13l5 3h343q15 -7 15 -20t-15 -20h-319v-565q-7 -14 -20 -14z" />
    <glyph glyph-name="uniE150" unicode="&#xe150;" horiz-adv-x="450" 
d="M-18 -213l-6 6v35l8 14q76 133 204 206q102 62 227 71q3 0 12 0.5t13 0.5q17 0 19 -6q1 -2 1 -54t-1 -54q-2 -6 -18 -6q-18 0 -27 -1q-117 -7 -210 -48.5t-150 -113.5q-18 -22 -29 -42q-4 -6 -7.5 -7t-18.5 -1h-17z" />
    <glyph glyph-name="uniE151" unicode="&#xe151;" horiz-adv-x="450" 
d="M-10 60v30q0 28 5 28q4 2 15 2q134 0 252 -72q128 -73 204 -206l8 -14v-35l-6 -6h-17q-15 0 -18.5 1t-7.5 7q-31 56 -87 99q-85 69 -209 93q-62 13 -120 13q-16 0 -18 6q-1 2 -1 54z" />
    <glyph glyph-name="uniE152" unicode="&#xe152;" horiz-adv-x="450" 
d="M-24 327l6 6h17q15 0 18.5 -1t7.5 -7q13 -23 29 -41q25 -33 58 -58q85 -69 209 -93q62 -13 120 -13q16 0 18 -6q1 -2 1 -54t-1 -54q-2 -6 -17 -6q-87 0 -182 36q-48 21 -72 36q-128 73 -204 206l-8 14v35z" />
    <glyph glyph-name="uniE153" unicode="&#xe153;" horiz-adv-x="450" 
d="M468 333l6 -6v-35l-8 -14q-76 -133 -204 -206q-24 -15 -72 -36q-95 -36 -182 -36q-15 0 -17 6q-1 2 -1 54t1 54q2 6 18 6q18 0 28 1q184 11 301 105q33 25 58 58q16 18 29 41q4 6 6 6q2 2 20 2h17z" />
    <glyph glyph-name="uniE154" unicode="&#xe154;" horiz-adv-x="400" 
d="M-10 0v120h420v-120h-420z" />
    <glyph glyph-name="uniEFFD" unicode="&#xeffd;" horiz-adv-x="300" 
d="M0 0v100h100v-100h-100zM200 0v100h100v-100h-100z" />
    <glyph glyph-name="uniEFFE" unicode="&#xeffe;" horiz-adv-x="300" 
d="M0 0v100h100v-100h-100zM200 0v100h100v-100h-100z" />
    <glyph glyph-name="uniEFFF" unicode="&#xefff;" horiz-adv-x="100" 
d="M0 0v100h100v-100h-100z" />
  </font>
</defs>
</svg>
